<?xml version="1.0"?>
<svg xmlns="http://www.w3.org/2000/svg" height="512px" viewBox="0 -37 384 384" width="512px"><path d="m290.925781 180.152344c0-54.632813-44.292969-98.925782-98.925781-98.925782s-98.925781 44.292969-98.925781 98.925782c0 54.632812 44.292969 98.921875 98.925781 98.921875 54.609375-.058594 98.863281-44.3125 98.925781-98.921875zm-187.851562 0c0-49.113282 39.8125-88.925782 88.925781-88.925782s88.925781 39.8125 88.925781 88.925782c0 49.109375-39.8125 88.921875-88.925781 88.921875-49.089844-.054688-88.867188-39.832031-88.925781-88.921875zm0 0" fill="#FFFFFF"/><path d="m218.066406 136.664062c15.335938 9.113282 24.703125 25.65625 24.628906 43.492188 0 2.761719 2.238282 5 5 5 2.761719 0 5-2.238281 5-5-.070312-21.3125-11.25-41.046875-29.496093-52.0625-2.359375-1.351562-5.367188-.570312-6.769531 1.761719-1.398438 2.332031-.679688 5.351562 1.617187 6.804687zm0 0" fill="#FFFFFF"/><path d="m201.882812 130.421875c.324219.0625.648438.09375.976563.09375 2.570313-.003906 4.71875-1.957031 4.964844-4.515625.25-2.558594-1.480469-4.886719-4-5.386719-3.894531-.769531-7.855469-1.15625-11.824219-1.15625-2.761719 0-5 2.238281-5 5s2.238281 5 5 5c3.316406 0 6.628906.324219 9.882812.964844zm0 0" fill="#FFFFFF"/><path d="m347.714844 49.96875h-58.425782l-12.234374-30.09375c-4.855469-12.039062-16.550782-19.9101562-29.53125-19.875h-111.046876c-12.980468-.0351562-24.675781 7.835938-29.53125 19.875l-12.234374 30.09375h-58.425782c-20.03125.019531-36.2617185 16.253906-36.285156 36.285156v187.796875c.0234375 20.03125 16.253906 36.261719 36.285156 36.285157 2.761719 0 5-2.238282 5-5 0-2.761719-2.238281-5-5-5-14.511718-.015626-26.265625-11.773438-26.285156-26.285157v-187.796875c.019531-14.511718 11.773438-26.269531 26.285156-26.285156h61.820313c1.988281-.082031 3.761719-1.273438 4.585937-3.085938v-.027343l13.5-33.199219c3.332032-8.261719 11.359375-13.664062 20.269532-13.640625h111.0625c8.910156-.023437 16.9375 5.378906 20.269531 13.640625l10.699219 26.3125h-86.492188c-2.761719 0-5 2.238281-5 5s2.238281 5 5 5h155.714844c14.511718.015625 26.265625 11.773438 26.285156 26.285156v187.796875c-.019531 14.511719-11.773438 26.269531-26.285156 26.285157h-287.046875c-2.761719 0-5 2.238281-5 5 0 2.761718 2.238281 5 5 5h287.046875c20.03125-.023438 36.261718-16.253907 36.285156-36.285157v-187.796875c-.023438-20.03125-16.253906-36.265625-36.285156-36.285156zm0 0" fill="#FFFFFF"/><path d="m334.800781 124.226562c8.480469-.007812 15.351563-6.882812 15.363281-15.363281v-11.421875c-.011718-8.480468-6.882812-15.355468-15.363281-15.367187h-11.4375c-8.480469.011719-15.351562 6.886719-15.363281 15.367187v11.421875c.011719 8.480469 6.882812 15.355469 15.363281 15.363281zm-16.800781-15.363281v-11.421875c.003906-2.960937 2.402344-5.359375 5.363281-5.367187h11.4375c2.960938.007812 5.359375 2.40625 5.363281 5.367187v11.421875c-.003906 2.960938-2.402343 5.359375-5.363281 5.363281h-11.4375c-2.960937-.003906-5.359375-2.402343-5.363281-5.363281zm0 0" fill="#FFFFFF"/></svg>
